<svg width="17" height="17" viewBox="0 0 17 17" fill="none" xmlns="http://www.w3.org/2000/svg">
<path d="M8.49992 0.615234C4.14575 0.615234 0.583252 4.16982 0.583252 8.54773C0.583252 12.5061 3.48075 15.7915 7.26492 16.3852V10.8436H5.25409V8.54773H7.26492V6.79815C7.26492 4.81107 8.4445 3.71857 10.2574 3.71857C11.1203 3.71857 12.0228 3.86898 12.0228 3.86898V5.8244H11.0253C10.0437 5.8244 9.73492 6.43398 9.73492 7.0594V8.54773H11.9358L11.5795 10.8436H9.73492V16.3852C11.6004 16.0906 13.2992 15.1388 14.5244 13.7015C15.7497 12.2643 16.4208 10.4364 16.4166 8.54773C16.4166 4.16982 12.8541 0.615234 8.49992 0.615234Z" fill="white"/>
</svg>
