<?xml version="1.0" encoding="UTF-8"?>
<svg xmlns="http://www.w3.org/2000/svg" xmlns:xlink="http://www.w3.org/1999/xlink" width="16pt" height="16pt" viewBox="0 0 16 16" version="1.1">
<g id="surface1">
<path style=" color:white;stroke:none;fill-rule:nonzero;fill:white;" d="M 8 1.441406 C 10.136719 1.441406 10.390625 1.449219 11.234375 1.488281 C 12.011719 1.523438 12.4375 1.652344 12.71875 1.761719 C 13.089844 1.910156 13.359375 2.082031 13.636719 2.363281 C 13.917969 2.640625 14.089844 2.910156 14.238281 3.28125 C 14.347656 3.5625 14.476562 3.988281 14.511719 4.765625 C 14.550781 5.609375 14.558594 5.863281 14.558594 8 C 14.558594 10.136719 14.550781 10.390625 14.511719 11.234375 C 14.476562 12.011719 14.347656 12.4375 14.238281 12.71875 C 14.089844 13.089844 13.917969 13.359375 13.636719 13.636719 C 13.359375 13.917969 13.089844 14.089844 12.71875 14.238281 C 12.4375 14.347656 12.011719 14.476562 11.234375 14.511719 C 10.390625 14.550781 10.136719 14.558594 8 14.558594 C 5.863281 14.558594 5.609375 14.550781 4.765625 14.511719 C 3.988281 14.476562 3.5625 14.347656 3.28125 14.238281 C 2.910156 14.089844 2.640625 13.917969 2.363281 13.636719 C 2.082031 13.359375 1.910156 13.089844 1.761719 12.71875 C 1.652344 12.4375 1.523438 12.011719 1.488281 11.234375 C 1.449219 10.390625 1.441406 10.136719 1.441406 8 C 1.441406 5.863281 1.449219 5.609375 1.488281 4.765625 C 1.523438 3.988281 1.652344 3.5625 1.761719 3.28125 C 1.910156 2.910156 2.082031 2.640625 2.363281 2.363281 C 2.640625 2.082031 2.910156 1.910156 3.28125 1.761719 C 3.5625 1.652344 3.988281 1.523438 4.765625 1.488281 C 5.609375 1.449219 5.863281 1.441406 8 1.441406 M 8 0 C 5.828125 0 5.554688 0.0078125 4.703125 0.046875 C 3.851562 0.0859375 3.269531 0.222656 2.757812 0.421875 C 2.234375 0.625 1.789062 0.898438 1.34375 1.34375 C 0.898438 1.789062 0.625 2.234375 0.421875 2.757812 C 0.222656 3.269531 0.0859375 3.851562 0.046875 4.703125 C 0.0078125 5.554688 0 5.828125 0 8 C 0 10.171875 0.0078125 10.445312 0.046875 11.296875 C 0.0859375 12.148438 0.222656 12.730469 0.421875 13.242188 C 0.625 13.765625 0.898438 14.210938 1.34375 14.65625 C 1.789062 15.101562 2.234375 15.375 2.757812 15.578125 C 3.269531 15.777344 3.851562 15.914062 4.703125 15.953125 C 5.554688 15.992188 5.828125 16 8 16 C 10.171875 16 10.445312 15.992188 11.296875 15.953125 C 12.148438 15.914062 12.730469 15.777344 13.242188 15.578125 C 13.765625 15.375 14.210938 15.101562 14.65625 14.65625 C 15.101562 14.210938 15.375 13.765625 15.578125 13.242188 C 15.777344 12.730469 15.914062 12.148438 15.953125 11.296875 C 15.992188 10.445312 16 10.171875 16 8 C 16 5.828125 15.992188 5.554688 15.953125 4.703125 C 15.914062 3.851562 15.777344 3.269531 15.578125 2.757812 C 15.375 2.234375 15.101562 1.789062 14.65625 1.34375 C 14.210938 0.898438 13.765625 0.625 13.242188 0.421875 C 12.730469 0.222656 12.148438 0.0859375 11.296875 0.046875 C 10.445312 0.0078125 10.171875 0 8 0 Z M 8 3.890625 C 5.730469 3.890625 3.890625 5.730469 3.890625 8 C 3.890625 10.269531 5.730469 12.109375 8 12.109375 C 10.269531 12.109375 12.109375 10.269531 12.109375 8 C 12.109375 5.730469 10.269531 3.890625 8 3.890625 Z M 8 10.667969 C 6.527344 10.667969 5.332031 9.472656 5.332031 8 C 5.332031 6.527344 6.527344 5.332031 8 5.332031 C 9.472656 5.332031 10.667969 6.527344 10.667969 8 C 10.667969 9.472656 9.472656 10.667969 8 10.667969 Z M 13.230469 3.730469 C 13.230469 4.261719 12.800781 4.691406 12.269531 4.691406 C 11.738281 4.691406 11.308594 4.261719 11.308594 3.730469 C 11.308594 3.199219 11.738281 2.769531 12.269531 2.769531 C 12.800781 2.769531 13.230469 3.199219 13.230469 3.730469 Z M 13.230469 3.730469 "/>
</g>
</svg>
