<svg width="17" height="17" viewBox="0 0 17 17" fill="none" xmlns="http://www.w3.org/2000/svg">
<path d="M8.49992 0.61499C4.14575 0.61499 0.583252 4.16957 0.583252 8.54749C0.583252 12.5058 3.48075 15.7912 7.26492 16.385V10.8433H5.25409V8.54749H7.26492V6.79791C7.26492 4.81082 8.4445 3.71832 10.2574 3.71832C11.1203 3.71832 12.0228 3.86874 12.0228 3.86874V5.82416H11.0253C10.0437 5.82416 9.73492 6.43374 9.73492 7.05916V8.54749H11.9358L11.5795 10.8433H9.73492V16.385C11.6004 16.0904 13.2992 15.1385 14.5244 13.7013C15.7497 12.2641 16.4208 10.4361 16.4166 8.54749C16.4166 4.16957 12.8541 0.61499 8.49992 0.61499Z" fill="white"/>
</svg>
