<svg width="15" height="15" viewBox="0 0 15 15" fill="none" xmlns="http://www.w3.org/2000/svg">
<path d="M13.0417 0.375C13.4616 0.375 13.8643 0.541815 14.1613 0.838748C14.4582 1.13568 14.625 1.53841 14.625 1.95833V13.0417C14.625 13.4616 14.4582 13.8643 14.1613 14.1613C13.8643 14.4582 13.4616 14.625 13.0417 14.625H1.95833C1.53841 14.625 1.13568 14.4582 0.838748 14.1613C0.541815 13.8643 0.375 13.4616 0.375 13.0417V1.95833C0.375 1.53841 0.541815 1.13568 0.838748 0.838748C1.13568 0.541815 1.53841 0.375 1.95833 0.375H13.0417ZM12.6458 12.6458V8.45C12.6458 7.76552 12.3739 7.10908 11.8899 6.62508C11.4059 6.14108 10.7495 5.86917 10.065 5.86917C9.39208 5.86917 8.60833 6.28083 8.22833 6.89833V6.01958H6.01958V12.6458H8.22833V8.74292C8.22833 8.13333 8.71917 7.63458 9.32875 7.63458C9.6227 7.63458 9.90461 7.75135 10.1125 7.95921C10.3203 8.16706 10.4371 8.44897 10.4371 8.74292V12.6458H12.6458ZM3.44667 4.77667C3.7994 4.77667 4.1377 4.63654 4.38712 4.38712C4.63654 4.1377 4.77667 3.7994 4.77667 3.44667C4.77667 2.71042 4.18292 2.10875 3.44667 2.10875C3.09183 2.10875 2.75152 2.24971 2.50062 2.50062C2.24971 2.75152 2.10875 3.09183 2.10875 3.44667C2.10875 4.18292 2.71042 4.77667 3.44667 4.77667ZM4.54708 12.6458V6.01958H2.35417V12.6458H4.54708Z" fill="white"/>
</svg>
